<?xml version="1.0" encoding="UTF-8" standalone="no"?>
<!-- Created with Inkscape (http://www.inkscape.org/) -->

<svg
   width="15.875mm"
   height="37.041626mm"
   viewBox="0 0 15.875 37.041626"
   version="1.1"
   id="svg5"
   xml:space="preserve"
   xmlns="http://www.w3.org/2000/svg"
   xmlns:svg="http://www.w3.org/2000/svg"><defs
     id="defs2"><clipPath
       clipPathUnits="userSpaceOnUse"
       id="clipPath17593-8-4-1-4-8-6-5-6-6-0-0-6-0-7-0-0"><path
         d="M 0,2102.64 H 3500.67 V 0 H 0 Z"
         id="path17591-8-0-9-9-7-3-2-6-1-9-5-9-5-1-0-8" /></clipPath></defs><g
     id="layer1"
     transform="translate(4174.187,2454.4718)"><g
       id="g17589-4-6-3-1-1-9-0-2-7-8-8-4-9-0-7-8"
       clip-path="url(#clipPath17593-8-4-1-4-8-6-5-6-6-0-0-6-0-7-0-0)"
       style="fill:#ff0000;fill-opacity:1;stroke:none;stroke-opacity:1"
       transform="matrix(0.34177358,0,0,-0.24686368,-4485.2358,-2234.4437)"><g
         id="g17595-8-0-8-2-2-4-9-2-3-3-8-4-7-3-0-7"
         transform="translate(1050.6394,961.7078)"
         style="fill:#ff0000;fill-opacity:1;stroke:none;stroke-opacity:1"><path
           style="fill:#ffffff;fill-opacity:1;fill-rule:nonzero;stroke:none;stroke-width:0.226977;stroke-opacity:1"
           d="m -140.53749,-70.413557 v -34.461983 l 23.11742,15.197503 v -98.248973 c 0,-2.78275 -0.42808,-4.92314 -0.85616,-6.42165 -0.64212,-1.71232 -1.71254,-2.78251 -3.42486,-3.21059 -1.71232,-0.64212 -3.85294,-0.85616 -6.63546,-0.85616 h -11.77286 v -22.04722 h 18.8364 c 6.42164,0 11.77286,0.85616 15.6258,2.78251 4.06676,1.92659 7.06354,4.7091 8.77586,8.56204 1.92658,3.85294 2.78274,8.99012 2.78274,15.41177 v 123.292753 h -8.56204 z"
           id="path18387-9-3-2-0-6-1-1-7-6-8-5-1-8-3-5" /></g></g></g></svg>
